HIERARCHY
ROOT Hips
{
  OFFSET -47.7697 91.9036 -56.34
  CHANNELS 6 Xposition Yposition Zposition Zrotation Xrotation Yrotation
  JOINT Spine
  {
    OFFSET 0 8 0
    CHANNELS 6 Xposition Yposition Zposition Zrotation Xrotation Yrotation
    JOINT Spine1
    {
      OFFSET 0 8 0
      CHANNELS 6 Xposition Yposition Zposition Zrotation Xrotation Yrotation
      JOINT Spine2
      {
        OFFSET 0 8 0
        CHANNELS 6 Xposition Yposition Zposition Zrotation Xrotation Yrotation
        JOINT Spine3
        {
          OFFSET 0 8 0
          CHANNELS 6 Xposition Yposition Zposition Zrotation Xrotation Yrotation
          JOINT Neck
          {
            OFFSET 0 17 0
            CHANNELS 6 Xposition Yposition Zposition Zrotation Xrotation Yrotation
            JOINT Head
            {
              OFFSET 0 10.8 0
              CHANNELS 6 Xposition Yposition Zposition Zrotation Xrotation Yrotation
              End Site
              {
                OFFSET 0 20.25 0
              }
            }
          }
          JOINT LeftShoulder
          {
            OFFSET 5 17 0
            CHANNELS 6 Xposition Yposition Zposition Zrotation Xrotation Yrotation
            JOINT LeftShoulder2
            {
              OFFSET 6.45 0 0
              CHANNELS 6 Xposition Yposition Zposition Zrotation Xrotation Yrotation
              JOINT LeftArm
              {
                OFFSET 6.45 0 0
                CHANNELS 6 Xposition Yposition Zposition Zrotation Xrotation Yrotation
                JOINT LeftForeArm
                {
                  OFFSET 0 -32.4 -2
                  CHANNELS 6 Xposition Yposition Zposition Zrotation Xrotation Yrotation
                  JOINT LeftHand
                  {
                    OFFSET 0 -25.65 2
                    CHANNELS 6 Xposition Yposition Zposition Zrotation Xrotation Yrotation
                    JOINT LeftHandThumb1
                    {
                      OFFSET -0.5 -1.5 2.65
                      CHANNELS 6 Xposition Yposition Zposition Zrotation Xrotation Yrotation
                      JOINT LeftHandThumb2
                      {
                        OFFSET 0 -3.8 3.7
                        CHANNELS 6 Xposition Yposition Zposition Zrotation Xrotation Yrotation
                        JOINT LeftHandThumb3
                        {
                          OFFSET 0 -3 2.7
                          CHANNELS 6 Xposition Yposition Zposition Zrotation Xrotation Yrotation
                          End Site
                          {
                            OFFSET 0 -2.3 1.8
                          }
                        }
                      }
                    }
                    JOINT LeftHandIndex
                    {
                      OFFSET 0 -1.9 1.6
                      CHANNELS 6 Xposition Yposition Zposition Zrotation Xrotation Yrotation
                      JOINT LeftHandIndex1
                      {
                        OFFSET 0 -8.3 1.9
                        CHANNELS 6 Xposition Yposition Zposition Zrotation Xrotation Yrotation
                        JOINT LeftHandIndex2
                        {
                          OFFSET 0 -4.5 0
                          CHANNELS 6 Xposition Yposition Zposition Zrotation Xrotation Yrotation
                          JOINT LeftHandIndex3
                          {
                            OFFSET 0 -3.4 0
                            CHANNELS 6 Xposition Yposition Zposition Zrotation Xrotation Yrotation
                            End Site
                            {
                              OFFSET 0 -2.6 0
                            }
                          }
                        }
                      }
                    }
                    JOINT LeftHandMiddle
                    {
                      OFFSET -0.25 -2.2 0.4
                      CHANNELS 6 Xposition Yposition Zposition Zrotation Xrotation Yrotation
                      JOINT LeftHandMiddle1
                      {
                        OFFSET 0 -8.3 1
                        CHANNELS 6 Xposition Yposition Zposition Zrotation Xrotation Yrotation
                        JOINT LeftHandMiddle2
                        {
                          OFFSET 0 -4.65 0
                          CHANNELS 6 Xposition Yposition Zposition Zrotation Xrotation Yrotation
                          JOINT LeftHandMiddle3
                          {
                            OFFSET 0 -3.3 0
                            CHANNELS 6 Xposition Yposition Zposition Zrotation Xrotation Yrotation
                            End Site
                            {
                              OFFSET 0 -2.7 0
                            }
                          }
                        }
                      }
                    }
                    JOINT LeftHandRing
                    {
                      OFFSET -0.5 -2.15 -0.8
                      CHANNELS 6 Xposition Yposition Zposition Zrotation Xrotation Yrotation
                      JOINT LeftHandRing1
                      {
                        OFFSET 0 -7.75 -0.2
                        CHANNELS 6 Xposition Yposition Zposition Zrotation Xrotation Yrotation
                        JOINT LeftHandRing2
                        {
                          OFFSET 0 -3.8 0
                          CHANNELS 6 Xposition Yposition Zposition Zrotation Xrotation Yrotation
                          JOINT LeftHandRing3
                          {
                            OFFSET 0 -3.4 0
                            CHANNELS 6 Xposition Yposition Zposition Zrotation Xrotation Yrotation
                            End Site
                            {
                              OFFSET 0 -2.6 0
                            }
                          }
                        }
                      }
                    }
                    JOINT LeftHandPinky
                    {
                      OFFSET -0.75 -1.75 -1.85
                      CHANNELS 6 Xposition Yposition Zposition Zrotation Xrotation Yrotation
                      JOINT LeftHandPinky1
                      {
                        OFFSET 0 -7.15 -1
                        CHANNELS 6 Xposition Yposition Zposition Zrotation Xrotation Yrotation
                        JOINT LeftHandPinky2
                        {
                          OFFSET 0 -3 0
                          CHANNELS 6 Xposition Yposition Zposition Zrotation Xrotation Yrotation
                          JOINT LeftHandPinky3
                          {
                            OFFSET 0 -2.35 0
                            CHANNELS 6 Xposition Yposition Zposition Zrotation Xrotation Yrotation
                            End Site
                            {
                              OFFSET 0 -2.1 0
                            }
                          }
                        }
                      }
                    }
                  }
                }
              }
            }
          }
          JOINT RightShoulder
          {
            OFFSET -5 17 0
            CHANNELS 6 Xposition Yposition Zposition Zrotation Xrotation Yrotation
            JOINT RightShoulder2
            {
              OFFSET -6.45 0 0
              CHANNELS 6 Xposition Yposition Zposition Zrotation Xrotation Yrotation
              JOINT RightArm
              {
                OFFSET -6.45 0 0
                CHANNELS 6 Xposition Yposition Zposition Zrotation Xrotation Yrotation
                JOINT RightForeArm
                {
                  OFFSET 0 -32.4 -2
                  CHANNELS 6 Xposition Yposition Zposition Zrotation Xrotation Yrotation
                  JOINT RightHand
                  {
                    OFFSET 0 -25.65 2
                    CHANNELS 6 Xposition Yposition Zposition Zrotation Xrotation Yrotation
                    JOINT RightHandThumb1
                    {
                      OFFSET 0.5 -1.5 2.65
                      CHANNELS 6 Xposition Yposition Zposition Zrotation Xrotation Yrotation
                      JOINT RightHandThumb2
                      {
                        OFFSET 0 -3.8 3.7
                        CHANNELS 6 Xposition Yposition Zposition Zrotation Xrotation Yrotation
                        JOINT RightHandThumb3
                        {
                          OFFSET 0 -3 2.7
                          CHANNELS 6 Xposition Yposition Zposition Zrotation Xrotation Yrotation
                          End Site
                          {
                            OFFSET 0 -2.3 1.8
                          }
                        }
                      }
                    }
                    JOINT RightHandIndex
                    {
                      OFFSET 0 -1.9 1.6
                      CHANNELS 6 Xposition Yposition Zposition Zrotation Xrotation Yrotation
                      JOINT RightHandIndex1
                      {
                        OFFSET 0 -8.3 1.9
                        CHANNELS 6 Xposition Yposition Zposition Zrotation Xrotation Yrotation
                        JOINT RightHandIndex2
                        {
                          OFFSET 0 -4.5 0
                          CHANNELS 6 Xposition Yposition Zposition Zrotation Xrotation Yrotation
                          JOINT RightHandIndex3
                          {
                            OFFSET 0 -3.4 0
                            CHANNELS 6 Xposition Yposition Zposition Zrotation Xrotation Yrotation
                            End Site
                            {
                              OFFSET 0 -2.6 0
                            }
                          }
                        }
                      }
                    }
                    JOINT RightHandMiddle
                    {
                      OFFSET 0.25 -2.2 0.4
                      CHANNELS 6 Xposition Yposition Zposition Zrotation Xrotation Yrotation
                      JOINT RightHandMiddle1
                      {
                        OFFSET 0 -8.3 1
                        CHANNELS 6 Xposition Yposition Zposition Zrotation Xrotation Yrotation
                        JOINT RightHandMiddle2
                        {
                          OFFSET 0 -4.65 0
                          CHANNELS 6 Xposition Yposition Zposition Zrotation Xrotation Yrotation
                          JOINT RightHandMiddle3
                          {
                            OFFSET 0 -3.3 0
                            CHANNELS 6 Xposition Yposition Zposition Zrotation Xrotation Yrotation
                            End Site
                            {
                              OFFSET 0 -2.7 0
                            }
                          }
                        }
                      }
                    }
                    JOINT RightHandRing
                    {
                      OFFSET 0.5 -2.15 -0.8
                      CHANNELS 6 Xposition Yposition Zposition Zrotation Xrotation Yrotation
                      JOINT RightHandRing1
                      {
                        OFFSET 0 -7.75 -0.2
                        CHANNELS 6 Xposition Yposition Zposition Zrotation Xrotation Yrotation
                        JOINT RightHandRing2
                        {
                          OFFSET 0 -3.8 0
                          CHANNELS 6 Xposition Yposition Zposition Zrotation Xrotation Yrotation
                          JOINT RightHandRing3
                          {
                            OFFSET 0 -3.4 0
                            CHANNELS 6 Xposition Yposition Zposition Zrotation Xrotation Yrotation
                            End Site
                            {
                              OFFSET 0 -2.6 0
                            }
                          }
                        }
                      }
                    }
                    JOINT RightHandPinky
                    {
                      OFFSET 0.75 -1.75 -1.85
                      CHANNELS 6 Xposition Yposition Zposition Zrotation Xrotation Yrotation
                      JOINT RightHandPinky1
                      {
                        OFFSET 0 -7.15 -1
                        CHANNELS 6 Xposition Yposition Zposition Zrotation Xrotation Yrotation
                        JOINT RightHandPinky2
                        {
                          OFFSET 0 -3 0
                          CHANNELS 6 Xposition Yposition Zposition Zrotation Xrotation Yrotation
                          JOINT RightHandPinky3
                          {
                            OFFSET 0 -2.35 0
                            CHANNELS 6 Xposition Yposition Zposition Zrotation Xrotation Yrotation
                            End Site
                            {
                              OFFSET 0 -2.1 0
                            }
                          }
                        }
                      }
                    }
                  }
                }
              }
            }
          }
        }
      }
    }
  }
  JOINT LeftUpLeg
  {
    OFFSET 8 0 0
    CHANNELS 6 Xposition Yposition Zposition Zrotation Xrotation Yrotation
    JOINT LeftLeg
    {
      OFFSET 0 -45 -1
      CHANNELS 6 Xposition Yposition Zposition Zrotation Xrotation Yrotation
      JOINT LeftFoot
      {
        OFFSET 0 -41 -2
        CHANNELS 6 Xposition Yposition Zposition Zrotation Xrotation Yrotation
        JOINT LeftToeBase
        {
          OFFSET 0 -7.5 12.5
          CHANNELS 6 Xposition Yposition Zposition Zrotation Xrotation Yrotation
          JOINT LeftFootToe
          {
            OFFSET 0 0 4
            CHANNELS 6 Xposition Yposition Zposition Zrotation Xrotation Yrotation
            End Site
            {
              OFFSET 0 0 0
            }
          }
        }
      }
    }
  }
  JOINT RightUpLeg
  {
    OFFSET -8 0 0
    CHANNELS 6 Xposition Yposition Zposition Zrotation Xrotation Yrotation
    JOINT RightLeg
    {
      OFFSET 0 -45 -1
      CHANNELS 6 Xposition Yposition Zposition Zrotation Xrotation Yrotation
      JOINT RightFoot
      {
        OFFSET 0 -41 -2
        CHANNELS 6 Xposition Yposition Zposition Zrotation Xrotation Yrotation
        JOINT RightToeBase
        {
          OFFSET 0 -7.5 12.5
          CHANNELS 6 Xposition Yposition Zposition Zrotation Xrotation Yrotation
          JOINT RightFootToe
          {
            OFFSET 0 0 4
            CHANNELS 6 Xposition Yposition Zposition Zrotation Xrotation Yrotation
            End Site
            {
              OFFSET 0 0 0
            }
          }
        }
      }
    }
  }
}
MOTION
Frames:	3
Frame Time:	0.0111111
-1.42369e-12 93.5 2.63753e-11 -1.07302e-05 5.77976e-06 -2.93699e-08 1e-05 8 1e-05 -6.19504e-06 -1.43823e-06 9.46685e-06 1e-05 8 1e-05 -3.76177e-07 -6.77429e-07 -5.24685e-06 1e-05 8 1e-05 -1.00414e-06 2.08464e-06 3.87386e-06 1e-05 8 1e-05 -2.07436e-21 0 -1.51661e-21 1e-05 17 1e-05 -3.10353e-06 3.42745e-06 3.4584e-05 1e-05 10.8 1e-05 1.06116e-06 -4.54065e-06 -3.86532e-06 5 17 1e-05 -0.00116879 -0.00878565 2.25481e-08 6.45 1e-05 1e-05 -0.000889606 -0.00893581 1.51661e-21 6.45 1e-05 1e-05 93.0588 1.93906 4.4542 1e-05 -32.4 -2 -0.00014544 -0.000137463 -2.69493e-05 1e-05 -25.65 2 1.46422e-05 9.25619e-06 2.05182e-05 -0.5 -1.5 2.65 3.44482e-07 6.97326e-06 -4.2635e-06 1e-05 -3.8 3.7 4.61512e-06 -1.0153e-05 -2.77705e-06 1e-05 -3 2.7 0.0110979 -1.68281e-06 -0.00848166 1e-05 -1.9 1.6 4.94948e-06 -5.86679e-07 -4.74157e-07 1e-05 -8.3 1.9 -1.0112e-05 -4.41618e-06 6.48573e-07 1e-05 -4.5 1e-05 6.20104e-06 0.00216594 -0.00606798 1e-05 -3.4 1e-05 2.80443e-06 0.00466783 -0.00499335 -0.25 -2.2 0.4 4.94948e-06 -5.86679e-07 -4.74157e-07 1e-05 -8.3 1 -5.15792e-06 -4.36696e-06 1.36381e-06 1e-05 -4.65 1e-05 -3.11793e-07 0.00679168 0.021822 1e-05 -3.3 1e-05 1.16074e-06 0.00130108 0.0211328 -0.5 -2.15 -0.8 4.94948e-06 -5.86679e-07 -4.74157e-07 1e-05 -7.75 -0.2 -4.67917e-06 7.36561e-06 1.37996e-07 1e-05 -3.8 1e-05 -0.000491813 0.00468818 0.00854047 1e-05 -3.4 1e-05 2.28458e-06 0.00421886 0.0225716 -0.75 -1.75 -1.85 4.94948e-06 -5.86679e-07 -4.74157e-07 1e-05 -7.15 -1 -4.40517e-06 1.36553e-05 -1.54241e-06 1e-05 -3 1e-05 -0.000430033 6.90493e-06 -2.53829e-06 1e-05 -2.35 1e-05 -7.95139e-16 -6.36111e-15 -0 -5 17 1e-05 -3.33873e-07 5.14109e-07 -3.82539e-06 -6.45 1e-05 1e-05 1.57699e-21 0 -7.58303e-22 -6.45 1e-05 1e-05 -92.8744 -9.99826 -16.1475 1e-05 -32.4 -2 -2.88955e-05 -2.67365e-05 1.87703e-05 1e-05 -25.65 2 1.59204e-05 -1.15217e-05 4.91239e-05 0.5 -1.5 2.65 3.64772e-06 8.55276e-06 1.98001e-07 1e-05 -3.8 3.7 7.09383e-06 -1.43982e-05 1.2262e-06 1e-05 -3 2.7 5.0102e-06 -7.62534e-06 5.07505e-06 1e-05 -1.9 1.6 7.95139e-16 -1.59028e-15 -6.36111e-15 1e-05 -8.3 1.9 2.02518e-06 6.43948e-06 -0.0151209 1e-05 -4.5 1e-05 1.1568e-06 -1.19601e-05 -0.00918118 1e-05 -3.4 1e-05 1.12899e-05 -9.33462e-06 -0.00745859 0.25 -2.2 0.4 7.95139e-16 -1.59028e-15 -6.36111e-15 1e-05 -8.3 1 5.20941e-06 -5.67764e-06 -4.74676e-06 1e-05 -4.65 1e-05 6.99678e-05 1.88152e-05 -0.0161744 1e-05 -3.3 1e-05 -5.7967e-06 -1.93792e-06 -0.0148783 0.5 -2.15 -0.8 7.95139e-16 -1.59028e-15 -6.36111e-15 1e-05 -7.75 -0.2 2.15417e-08 1.74861e-06 2.99989e-06 1e-05 -3.8 1e-05 0.000332679 5.7058e-06 -5.06518e-06 1e-05 -3.4 1e-05 -5.97653e-06 0.00158543 3.39009e-06 0.75 -1.75 -1.85 7.95139e-16 -1.59028e-15 -6.36111e-15 1e-05 -7.15 -1 5.06205e-07 -5.9092e-06 -3.64818e-06 1e-05 -3 1e-05 -1.35801e-06 0.00413877 0.00173278 1e-05 -2.35 1e-05 -1.94985e-06 0.00379373 0.00122735 8 1e-05 1e-05 -0.00905638 0.0405234 5.91932e-05 1e-05 -45 -1 -1.48993 0.357305 -32.6742 1e-05 -41 -2 1.47965 0.465922 35.6268 1e-05 -7.5 12.5 -1.36533e-08 -2.13207e-07 2.13372e-07 1e-05 1e-05 4 7.76503e-19 -3.10601e-18 3.97569e-16 -8 1e-05 1e-05 0.00312053 -0.0133987 0.00130846 1e-05 -45 -1 -0.00851658 0.0280506 -0.0430651 1e-05 -41 -2 0.00542506 -0.0146575 0.0417709 1e-05 -7.5 12.5 6.80352e-07 -9.21309e-08 -4.29071e-07 1e-05 1e-05 4 0.00414896 7.58303e-22 3.03321e-21 
-54.7564 94.3705 -81.4085 -4.22465 -7.92876 23.5978 1e-05 8 1e-05 -2.66081 6.78571 -1.17194 1e-05 8 1e-05 -1.37723 1.84988 5.44365 1e-05 8 1e-05 -0.715805 -2.95025 28.6248 1e-05 8 1e-05 2.41649 1.83898 -17.9102 1e-05 17 1e-05 2.50236 0.770036 -4.39191 1e-05 10.8 1e-05 5.93545 1.49599 -10.3146 5 17 1e-05 -0.001058 -0.00878495 0.722591 6.45 1e-05 1e-05 -0.000776913 -0.0089351 0.722594 6.45 1e-05 1e-05 19.0104 3.58984 -9.30192 1e-05 -32.4 -2 -45.7176 -66.6242 -84.3653 1e-05 -25.65 2 34.1004 -21.4392 -54.3303 -0.5 -1.5 2.65 -10.8765 -2.09093 -4.81614 1e-05 -3.8 3.7 0.459602 31.8201 -0.316586 1e-05 -3 2.7 0.0115916 3.3318 -0.00849602 1e-05 -1.9 1.6 4.94948e-06 -5.86679e-07 -4.74157e-07 1e-05 -8.3 1.9 -10.9478 -10.9323 -0.949865 1e-05 -4.5 1e-05 -12.9524 0.00216594 -0.00606798 1e-05 -3.4 1e-05 -11.0319 0.00466783 -0.00499335 -0.25 -2.2 0.4 4.94948e-06 -5.86679e-07 -4.74157e-07 1e-05 -8.3 1 -9.38837 -5.97882 -0.389533 1e-05 -4.65 1e-05 -3.11793e-07 0.00679168 0.021822 1e-05 -3.3 1e-05 1.16074e-06 0.00130108 0.0211328 -0.5 -2.15 -0.8 4.94948e-06 -5.86679e-07 -4.74157e-07 1e-05 -7.75 -0.2 -5.69024 0.392424 0.0952617 1e-05 -3.8 1e-05 -0.000491813 0.00468818 0.00854047 1e-05 -3.4 1e-05 2.28458e-06 0.00421886 0.0225716 -0.75 -1.75 -1.85 4.94948e-06 -5.86679e-07 -4.74157e-07 1e-05 -7.15 -1 -2.9673 3.33055 0.123723 1e-05 -3 1e-05 -0.000430033 6.90493e-06 -2.53829e-06 1e-05 -2.35 1e-05 2.98177e-16 -1.27222e-14 -1.98785e-15 -5 17 1e-05 -2.24751 -0.125273 6.3828 -6.45 1e-05 1e-05 -2.2475 -0.125277 6.38281 -6.45 1e-05 1e-05 13.1162 -53.5778 15.5787 1e-05 -32.4 -2 -0.15784 -6.17073 0.485545 1e-05 -25.65 2 -35.6344 -30.4599 23.5944 0.5 -1.5 2.65 -7.4529 -9.33294 -7.53134 1e-05 -3.8 3.7 -0.0434249 20.1064 0.0263778 1e-05 -3 2.7 3.41537e-06 17.4453 5.31974e-06 1e-05 -1.9 1.6 -3.18055e-15 0 1.35174e-14 1e-05 -8.3 1.9 0.0283746 -1.44009 -0.0151256 1e-05 -4.5 1e-05 1.1568e-06 -1.19601e-05 -0.00918118 1e-05 -3.4 1e-05 1.12899e-05 -9.33462e-06 -0.00745859 0.25 -2.2 0.4 -3.18055e-15 0 1.35174e-14 1e-05 -8.3 1 0.094401 -2.16203 -0.00955685 1e-05 -4.65 1e-05 6.99678e-05 1.88152e-05 -0.0161744 1e-05 -3.3 1e-05 -5.7967e-06 -1.93792e-06 -0.0148783 0.5 -2.15 -0.8 -3.18055e-15 0 1.35174e-14 1e-05 -7.75 -0.2 0.232572 -3.68795 -0.0253902 1e-05 -3.8 1e-05 0.000332679 5.7058e-06 -5.06518e-06 1e-05 -3.4 1e-05 -5.97653e-06 0.00158543 3.39009e-06 0.75 -1.75 -1.85 -3.18055e-15 0 1.35174e-14 1e-05 -7.15 -1 0.245424 -4.19815 -0.0284695 1e-05 -3 1e-05 -1.35801e-06 0.00413877 0.00173278 1e-05 -2.35 1e-05 -1.94985e-06 0.00379373 0.00122735 8 1e-05 1e-05 4.48423 0.364697 -10.0764 1e-05 -45 -1 -0.905574 4.00182 -18.5289 1e-05 -41 -2 1.9077 2.26724 1.04965 1e-05 -7.5 12.5 -1.36533e-08 -2.13207e-07 2.13372e-07 1e-05 1e-05 4 2.42422 -6.89823 0.0336135 -8 1e-05 1e-05 51.8194 -56.1376 51.3244 1e-05 -45 -1 -5.5181 82.2 6.44079 1e-05 -41 -2 1.55992 1.01463 -24.3117 1e-05 -7.5 12.5 6.80352e-07 -9.21309e-08 -4.29071e-07 1e-05 1e-05 4 0.00415449 0.0094797 -0.0334734 
-54.7865 94.3541 -81.345 -4.07882 -7.8763 23.8163 1e-05 8 1e-05 -2.82989 6.74577 -1.16059 1e-05 8 1e-05 -1.37783 1.82631 5.45155 1e-05 8 1e-05 -0.69335 -2.97752 28.6461 1e-05 8 1e-05 2.40472 1.84765 -17.9025 1e-05 17 1e-05 2.52097 0.783258 -3.6648 1e-05 10.8 1e-05 5.96881 1.5759 -8.615 5 17 1e-05 -0.00106383 -0.00878502 0.684527 6.45 1e-05 1e-05 -0.000782848 -0.00893517 0.684536 6.45 1e-05 1e-05 18.982 3.41732 -9.3255 1e-05 -32.4 -2 -45.4482 -66.4447 -84.0573 1e-05 -25.65 2 34.0193 -21.5168 -54.2363 -0.5 -1.5 2.65 -10.9602 -2.08753 -4.84213 1e-05 -3.8 3.7 0.459103 31.7556 -0.316229 1e-05 -3 2.7 0.0115905 3.3244 -0.00849596 1e-05 -1.9 1.6 4.94948e-06 -5.86679e-07 -4.74157e-07 1e-05 -8.3 1.9 -11.1037 -10.934 -0.963912 1e-05 -4.5 1e-05 -12.8857 0.00216594 -0.00606798 1e-05 -3.4 1e-05 -10.9829 0.00466783 -0.00499335 -0.25 -2.2 0.4 4.94948e-06 -5.86679e-07 -4.74157e-07 1e-05 -8.3 1 -9.48693 -6.01363 -0.397343 1e-05 -4.65 1e-05 -3.11793e-07 0.00679168 0.021822 1e-05 -3.3 1e-05 1.16074e-06 0.00130108 0.0211328 -0.5 -2.15 -0.8 4.94948e-06 -5.86679e-07 -4.74157e-07 1e-05 -7.75 -0.2 -5.69846 0.316021 0.0903166 1e-05 -3.8 1e-05 -0.000491813 0.00468818 0.00854047 1e-05 -3.4 1e-05 2.28458e-06 0.00421886 0.0225716 -0.75 -1.75 -1.85 4.94948e-06 -5.86679e-07 -4.74157e-07 1e-05 -7.15 -1 -2.93438 3.23894 0.118899 1e-05 -3 1e-05 -0.000430033 6.90493e-06 -2.53829e-06 1e-05 -2.35 1e-05 -2.08724e-15 -6.36111e-15 1.2921e-15 -5 17 1e-05 -2.24078 -0.124777 6.37771 -6.45 1e-05 1e-05 -2.24076 -0.12478 6.37771 -6.45 1e-05 1e-05 3.35683 -47.8045 9.49239 1e-05 -32.4 -2 -0.152783 -6.17416 0.552774 1e-05 -25.65 2 -35.6853 -30.3379 23.5494 0.5 -1.5 2.65 -7.42543 -9.30688 -7.46031 1e-05 -3.8 3.7 -0.0433451 20.2169 0.0263382 1e-05 -3 2.7 3.4219e-06 17.3782 5.31779e-06 1e-05 -1.9 1.6 -1.59028e-15 3.18055e-15 -1.59028e-15 1e-05 -8.3 1.9 0.0253494 -1.36465 -0.0151252 1e-05 -4.5 1e-05 1.1568e-06 -1.19601e-05 -0.00918118 1e-05 -3.4 1e-05 1.12899e-05 -9.33462e-06 -0.00745859 0.25 -2.2 0.4 -1.59028e-15 3.18055e-15 -1.59028e-15 1e-05 -8.3 1 0.0946553 -2.12819 -0.00990768 1e-05 -4.65 1e-05 6.99678e-05 1.88152e-05 -0.0161744 1e-05 -3.3 1e-05 -5.7967e-06 -1.93792e-06 -0.0148783 0.5 -2.15 -0.8 -1.59028e-15 3.18055e-15 -1.59028e-15 1e-05 -7.75 -0.2 0.239417 -3.7353 -0.0261213 1e-05 -3.8 1e-05 0.000332679 5.7058e-06 -5.06518e-06 1e-05 -3.4 1e-05 -5.97653e-06 0.00158543 3.39009e-06 0.75 -1.75 -1.85 -1.59028e-15 3.18055e-15 -1.59028e-15 1e-05 -7.15 -1 0.255504 -4.28671 -0.0293253 1e-05 -3 1e-05 -1.35801e-06 0.00413877 0.00173278 1e-05 -2.35 1e-05 -1.94985e-06 0.00379373 0.00122735 8 1e-05 1e-05 4.37923 0.364711 -10.0731 1e-05 -45 -1 -0.495124 3.90439 -9.88725 1e-05 -41 -2 1.78918 1.95694 12.2522 1e-05 -7.5 12.5 -1.36533e-08 -2.13207e-07 2.13372e-07 1e-05 1e-05 4 2.4452 -6.86417 0.0464245 -8 1e-05 1e-05 51.19 -55.928 50.7715 1e-05 -45 -1 -5.92088 81.8396 6.96608 1e-05 -41 -2 1.36225 1.05669 -24.1354 1e-05 -7.5 12.5 6.80352e-07 -9.21309e-08 -4.29071e-07 1e-05 1e-05 4 0.00415336 0.00799295 -0.0315626 
